# xmcd
#
# Track frame offsets: 
#        150
#        14503
#        30198
#        44527
#        54500
#        71087
#        91889
#        103983
#        119408
#        137812
#        145983
#        170148
#        183100
#        200185
#        214608
#        238020
#        250679
#        274402
#        287388
#        304866
#        319258
#        326983
#        339920
#
# Disc length: 4757 seconds
#
# Revision: 1
# Processed by: cddbd v1.5.2PL0 Copyright (c) Steve Scherf et al.
# Submitted via: ExactAudioCopyFreeDBPlugin 1.0
#
DISCID=64129317
DTITLE=Various Artist - A History Of UK Blues And R&B 1955 - 2001
DYEAR=2002
DGENRE=Blues
TTITLE0=Fleetwood Mac - Like it this way
TTITLE1=Brunning sunflower blues band - Ride with your daddy tonight
TTITLE2=John Dummer blues band - I can't be satisfied
TTITLE3=Top Topham - Ridin' the blinds
TTITLE4=Peter Green - Do you give a damn for me?
TTITLE5=Alexis Korner's blues incorparated - Operator
TTITLE6=Simon and Steve - Down and dirty
TTITLE7=Albert Lee and Paul Williams - Water on my fire
TTITLE8=Fleetwood Mac - Jumpin' at shadows (live)
TTITLE9=Jo and Kelly - Key to the highway
TTITLE10=Keef Hartley Band - Me and my woman (live)
TTITLE11=Juicy Lucy - That woman's got something
TTITLE12=Brunning sunflower blues band - Feel so bad
TTITLE13=Alexis Korner - Hellhound on my trail
TTITLE14=Chicken Shack - Revelation
TTITLE15=Chillii Willi and The red hot peppers - Just like the devil
TTITLE16=Duster Bennett - I've got to be with you tonight
TTITLE17=Jo and Kelly - Black rat swing
TTITLE18=Foghat - Sweet home Chicago
TTITLE19=The Pirates - Drinkin' wine Spo-dee-o-dee (live)
TTITLE20=Mick Farren - I want a drink
TTITLE21=The Downliners Sect - Frustration
TTITLE22=Jo and Kelly - Come see about me
EXTD=YEAR: 2002
EXTT0=
EXTT1=
EXTT2=
EXTT3=
EXTT4=
EXTT5=
EXTT6=
EXTT7=
EXTT8=
EXTT9=
EXTT10=
EXTT11=
EXTT12=
EXTT13=
EXTT14=
EXTT15=
EXTT16=
EXTT17=
EXTT18=
EXTT19=
EXTT20=
EXTT21=
EXTT22=
PLAYORDER=
